<?xml version="1.0" encoding="utf-8"?>
<!-- Generator: Adobe Illustrator 27.5.0, SVG Export Plug-In . SVG Version: 6.00 Build 0)  -->
<svg version="1.1" xmlns="http://www.w3.org/2000/svg" xmlns:xlink="http://www.w3.org/1999/xlink" x="0px" y="0px"
	 viewBox="0 0 750 500" style="enable-background:new 0 0 750 500;" xml:space="preserve">
<g id="BACKGROUND">
	<rect style="fill:#FFFFFF;" width="750" height="500"/>
</g>
<g id="OBJECTS">
	<g>
		<path style="fill:#FFE1EB;" d="M65.74,460.331h642.81c0,0,93.338-306.598-111.675-360.091s-228.979,68.292-378.709,53.713
			S-47.459,174.863,65.74,460.331z"/>
		<g>
			<g>
				<path style="fill:#FEBA97;" d="M711.298,316.444c-0.382-5.827-1.013-9.158-2.079-14.549
					c-14.471,9.272-28.568,13.423-28.568,13.423s-2.462,0-5.627-3.81c-3.165-3.81-10.033-13.423-10.033-13.423v26.846
					c0,0,22.577,25.791,38.989,21.101C720.393,341.342,712.028,327.566,711.298,316.444z"/>
				<path style="fill:#2C2D6D;" d="M675.025,311.507c3.165,3.81,5.627,3.81,5.627,3.81s14.097-4.15,28.568-13.423
					c-4.148-20.977-18.9-60.218-30.092-72.155c-12.158-12.968-37.963-22.78-50.5-27.325c-15.61,7.881-37.65,5.12-49.468,2.847
					c-8.142,6.095-23.199,14.657-24.295,26.354c-1.407,15.005-2.345,135.049-2.345,148.648c0,13.599-9.847,52.519-8.909,54.864
					c0.938,2.345,9.847,1.407,9.847,1.407c14.888-3.634,30.48-10.082,61.78-10.433c31.3-0.352,54.043-6.917,54.043-6.917
					l1.246,0.317c1.589,0.182,4.208-0.339,4.85-5.475c0.938-7.503-10.385-89.095-10.385-89.095v-26.846
					C664.992,298.085,671.86,307.697,675.025,311.507z"/>
				<path style="fill:#FF6196;" d="M678.572,460.331l-9.291-41.147c0,0-22.743,6.565-54.043,6.917
					c-31.3,0.352-46.892,6.799-61.78,10.433v23.797H678.572z"/>
				
					<path style="fill:none;stroke:#2C2D6D;stroke-width:0.2605;stroke-linecap:round;stroke-linejoin:round;stroke-miterlimit:10;" d="
					M617.348,431.61c0,0,2.289,16.532,1.78,28.721"/>
				
					<path style="fill:none;stroke:#2C2D6D;stroke-width:0.2605;stroke-linecap:round;stroke-linejoin:round;stroke-miterlimit:10;" d="
					M672.086,431.61c0,0-29.065,0.117-34.693,2.579l1.779,26.142"/>
				
					<path style="fill:none;stroke:#2C2D6D;stroke-width:0.2605;stroke-linecap:round;stroke-linejoin:round;stroke-miterlimit:10;" d="
					M553.457,441.574c0,0,31.887-4.924,41.734-4.22c0,0,2.983,13.154,3.389,22.977"/>
				
					<path style="fill:none;stroke:#2C2D6D;stroke-width:0.2605;stroke-linecap:round;stroke-linejoin:round;stroke-miterlimit:10;" d="
					M680.652,315.317c0,0,4.22,10.551,7.385,15.123"/>
				<g>
					
						<path style="fill:none;stroke:#FFFFFF;stroke-width:0.2605;stroke-linecap:round;stroke-linejoin:round;stroke-miterlimit:10;" d="
						M553.457,365.609c0,0,13.247,18.288,28.018,27.432"/>
					
						<path style="fill:none;stroke:#FFFFFF;stroke-width:0.2605;stroke-linecap:round;stroke-linejoin:round;stroke-miterlimit:10;" d="
						M667.165,340.913c0,0-7.615,21.883-19.221,24.696"/>
					
						<path style="fill:none;stroke:#FFFFFF;stroke-width:0.2605;stroke-linecap:round;stroke-linejoin:round;stroke-miterlimit:10;" d="
						M664.992,298.085c0,0-2.628-27.784-1.925-40.444"/>
				</g>
				<path style="fill:#FEBA97;" d="M628.628,202.415c-1.969-0.714-3.623-1.303-4.832-1.748c-8.91-3.282-6.764-21.143-6.764-21.143
					l-33.413,2.384c0,0,3.601,12.662,0.318,18.758c-0.724,1.344-2.475,2.871-4.778,4.595
					C590.977,207.534,613.017,210.295,628.628,202.415z"/>
				
					<path style="fill:none;stroke:#2C2D6D;stroke-width:0.2605;stroke-linecap:round;stroke-linejoin:round;stroke-miterlimit:10;" d="
					M670.526,419.5l-1.246-0.317C669.281,419.183,669.794,419.416,670.526,419.5z"/>
				<path style="fill:#FEBA97;" d="M627.782,157.313c-1.941-0.194-2.906,0.762-3.344,1.435c1.267-2.554,5.83-12.813,3.929-24.722
					c-2.197-13.767-16.55-22.115-28.852-22.408c-12.303,0.293-26.656,8.641-28.853,22.408c-1.9,11.909,2.662,22.167,3.929,24.722
					c-0.438-0.672-1.402-1.629-3.344-1.435c-2.929,0.293-2.197,8.934,0.879,13.914c3.076,4.98,6.298,0,6.298,0
					c0.789,1.368,3.168,6.365,5.193,10.682c1.884,4.015,2.99,8.374,3.025,12.809c0.003,0.333-0.001,0.666-0.011,0.998
					c2.578-0.402,6.499-0.826,12.218-0.826c7.66,0,13.779,0.336,17.046,0.562c0,0,0,0,0-0.001
					c-1.326-5.288-0.884-10.865,1.134-15.927c1.406-3.527,2.897-7.123,3.574-8.298c0,0,3.222,4.98,6.298,0
					C629.979,166.247,630.711,157.606,627.782,157.313z"/>
				<path style="fill:#2C2D6D;" d="M604.141,178.381c-2.473-0.899-5.148-0.91-7.677-0.183c-2.618,0.753-6.219,1.08-11.063-0.36
					c-9.688-2.88-16.758-30.898-18.329-39.801c-1.571-8.903,0-30.636,30.898-32.993s40.848,29.327,32.731,42.157
					s-7.332,26.185-17.544,30.112C608.61,179.062,605.828,178.994,604.141,178.381z"/>
				
					<path style="fill:none;stroke:#FFFFFF;stroke-width:0.2605;stroke-linecap:round;stroke-linejoin:round;stroke-miterlimit:10;" d="
					M581.266,211.476c0,0,31.542,6.776,50.744-3.83"/>
			</g>
			<g>
				<path style="fill:#DF9E82;" d="M39.313,308.854c5.868,33.891,17.694,71.512,21.383,72.865V311.58
					C53.511,311.527,46.275,310.588,39.313,308.854z"/>
				<path style="fill:#DF9E82;" d="M111.288,224.078c-2.065-4.321-1.963-14.966-1.963-14.966H77.161l-0.198,13.295
					c0,0-0.002,2.953-0.809,6.216C83.543,229.873,95.557,230.048,111.288,224.078z"/>
				<path style="fill:#00B6B1;" d="M162.305,460.331c0.195-12.665,0.836-68.067-2.732-77.185c-0.356-0.91-0.719-2.547-1.082-4.752
					c-37.559,10.946-81.434,6.168-100.257,3.258c-0.422,3.016-0.996,5.271-1.737,6.424c-3.564,5.544-11.677,59.726-13.516,72.256
					H162.305z"/>
				<path style="fill:#F2BC1C;" d="M200.104,239.495c-13.311-6.035-33.114-13.939-42.622-15.297
					c-18.822-2.689-40.485,4.552-44.518,1.978c-0.699-0.446-1.243-1.191-1.676-2.098c-15.731,5.97-27.745,5.795-35.135,4.546
					c-0.816,3.301-2.457,6.919-5.76,8.123c-6.629,2.415-14.01,1.779-19.93,6.077c-8.192,5.948-13.402,17.335-14.269,27.252
					c-0.52,5.952-0.212,11.979,0.307,17.919c0.196,2.241,1.215,20.462,2.811,20.86c4.489,1.118,9.092,1.901,13.723,2.333
					c1.157,4.555,2.188,9.138,3.012,13.399c2.926,15.12,4.06,43.668,2.185,57.065c18.823,2.91,62.698,7.688,100.257-3.258
					c-3.742-22.766-7.406-107.524-2.503-109.975c3.059-1.53,25.981,0.131,46.088,1.187
					C205.162,259.525,202.707,248.066,200.104,239.495z"/>
				
					<path style="fill:none;stroke:#2C2D6D;stroke-width:0.3037;stroke-linecap:round;stroke-linejoin:round;stroke-miterlimit:10;" d="
					M155.987,268.418c0,0,0.448-12.195,0-14.837"/>
				
					<path style="fill:none;stroke:#2C2D6D;stroke-width:0.3037;stroke-linecap:round;stroke-linejoin:round;stroke-miterlimit:10;" d="
					M58.745,349.581c0,0,5.913-11.252,15.053-14.837"/>
				
					<path style="fill:none;stroke:#2C2D6D;stroke-width:0.3037;stroke-linecap:round;stroke-linejoin:round;stroke-miterlimit:10;" d="
					M153.691,302.92c0,0-14.734-15.232-22.801-18.369"/>
				
					<path style="fill:none;stroke:#2C2D6D;stroke-width:0.3037;stroke-linecap:round;stroke-linejoin:round;stroke-miterlimit:10;" d="
					M66.271,391.212c0,0,54.312,6.722,80.305,0"/>
				
					<line style="fill:none;stroke:#2C2D6D;stroke-width:0.3037;stroke-linecap:round;stroke-linejoin:round;stroke-miterlimit:10;" x1="99.501" y1="460.331" x2="102.208" y2="394.2"/>
				
					<polygon style="fill:none;stroke:#2C2D6D;stroke-width:0.3037;stroke-linecap:round;stroke-linejoin:round;stroke-miterlimit:10;" points="
					153.691,402.864 117.446,402.864 117.446,431.994 135.568,446.335 153.691,432.89 				"/>
				
					<polygon style="fill:none;stroke:#2C2D6D;stroke-width:0.3037;stroke-linecap:round;stroke-linejoin:round;stroke-miterlimit:10;" points="
					92.807,402.472 56.634,400.176 54.789,429.247 71.966,444.708 90.904,432.438 				"/>
				<path style="fill:#DF9E82;" d="M122.07,183.83c-2.041-0.204-3.055,0.801-3.515,1.508c1.332-2.685,6.128-13.468,4.13-25.987
					c-2.309-14.472-17.397-23.247-30.329-23.555c-12.932,0.308-28.02,9.083-30.329,23.555c-1.998,12.518,2.799,23.302,4.131,25.987
					c-0.46-0.707-1.474-1.712-3.515-1.508c-3.079,0.308-2.309,9.391,0.924,14.626c3.233,5.234,6.62,0,6.62,0
					c0.83,1.438,3.33,6.69,5.459,11.229c1.98,4.221,3.143,8.802,3.18,13.465c0.003,0.35-0.001,0.7-0.011,1.049
					c2.71-0.422,6.832-0.869,12.843-0.869c8.052,0,14.484,0.353,17.919,0.591c0,0,0,0,0-0.001
					c-1.394-5.559-0.93-11.421,1.192-16.742c1.478-3.708,3.045-7.488,3.757-8.722c0,0,3.387,5.234,6.62,0
					C124.38,193.221,125.149,184.138,122.07,183.83z"/>
				<path style="fill:#A630A0;" d="M73.02,204.681c-1.055-1.754-1.981-3.597-2.954-5.367c-4.212-7.657-7.444-15.916-9.369-24.445
					c-3.894-17.25-3.147-29.608,6.263-34.5s18.213-4.377,25.397-10.298c7.185-5.922,23.147,2.06,28.039,9.784
					c4.892,7.724,12.392,27.806,3.622,37.847c-8.771,10.041-5.36,19.548-12.73,28.182c-3.821,4.477-10.573,5.866-16.129,6.508
					c-6.138,0.709-14.098,1.484-18.81-3.28C75.044,207.792,73.978,206.273,73.02,204.681z"/>
				
					<path style="fill:none;stroke:#2C2D6D;stroke-width:0.3037;stroke-linecap:round;stroke-linejoin:round;stroke-miterlimit:10;" d="
					M53.528,311.098c0,0-1.047-22.719,0-26.547"/>
			</g>
			<g>
				<path style="fill:#FEBA97;" d="M95.744,242.01c0,0,2.145-6.463,3.201-9.607c1.056-3.144,1.397-6.335,2.108-9.093
					c0.71-2.758,1.182-7.1,0.269-7.999c-0.913-0.899-2.925,2.514-3.627,4.053c-0.702,1.539-1.763,6.355-2.251,6.307
					s-3.04-21.389-4.203-23.105c-1.163-1.716-2.12,0.678-2.019,6.985c0.101,6.306,0.074,9.512-0.591,9.204
					s-5.206-15.292-7.462-16.494c-2.257-1.202,0.695,10.988,1.319,12.917c0.625,1.929,0.231,2.803-0.4,2.32
					c-0.631-0.483-7.694-12.694-8.565-12.635c-0.871,0.059-1.941,1.391,0.116,5.992c0.71,1.589,1.192,2.654,1.518,3.367
					c0.378,0.826,0.805,1.616,1.294,2.382c1.049,1.641,3.028,4.923,2.554,5.639c-0.637,0.963-7.458-9.211-8.712-9.045
					c-1.253,0.167,2.558,8.587,4.659,12.247c2.102,3.66,3.341,8.511,5.868,13.022c2.526,4.51,5.139,6.685,5.139,6.685L95.744,242.01
					z"/>
				<path style="fill:#FEBA97;" d="M342.526,106.908c0,0-1.053-6.728-1.577-10.003c-0.524-3.275-0.336-6.479-0.583-9.316
					c-0.247-2.838,0.002-7.198,1.051-7.934c1.048-0.736,2.471,2.961,2.911,4.594c0.44,1.633,0.693,6.559,1.183,6.591
					s6.518-20.597,7.948-22.098c1.43-1.501,1.98,1.018,0.842,7.222c-1.137,6.204-1.638,9.37-0.932,9.175s7.651-14.227,10.075-15.041
					s-2.493,10.724-3.427,12.524c-0.934,1.8-0.689,2.727,0.013,2.355c0.702-0.373,9.678-11.255,10.527-11.053
					c0.849,0.201,1.685,1.692-1.1,5.892c-0.962,1.45-1.612,2.421-2.052,3.071c-0.509,0.753-1.06,1.462-1.669,2.136
					c-1.305,1.446-3.796,4.358-3.447,5.142c0.47,1.055,8.872-7.858,10.081-7.488c1.209,0.37-3.936,8.049-6.611,11.313
					c-2.675,3.264-4.696,7.845-7.93,11.879c-3.234,4.033-6.169,5.749-6.169,5.749L342.526,106.908z"/>
				<path style="fill:#A630A0;" d="M294.715,460.331c4.178-29.141-6.201-45.107-10.975-65.774
					c-2.296-9.942-3.539-15.33-4.402-20.234c-31.143-2.922-76.417-0.368-92.433,0.703c-2.331,13.441-7.454,25.535-14.393,45.013
					c-5.643,15.84-4.223,30.522-1.934,40.292H294.715z"/>
				<path style="fill:#FF6196;" d="M353.881,110.252c-4.565-2.905-12.036-7.886-12.036-7.886s-24.487,37.768-32.788,54.784
					c-8.301,17.016-24.487,52.709-36.938,56.859c-12.451,4.15-21.167,16.186-21.167,16.186s0,0-7.056,0.83
					c-5.138,0.604-10.052-8.689-12.346-13.789c-4.872,1.665-10.469,4.719-17.225,9.223c-4.855,3.237-9.347,5.116-13.007,6.221
					c-1.138,6.294-6.166,8.541-18.846,11.625c-15.356,3.735-18.261,10.791-28.222,21.997c-9.961,11.206-40.673,36.108-41.503,34.448
					c-0.83-1.66-8.301-60.595-11.206-61.84c-2.905-1.245-12.866,1.66-18.261,1.66c-5.395,0-6.225,0.83-4.15,11.206
					c2.075,10.376,1.66,56.029,10.791,66.405c9.131,10.376,24.072,13.696,45.239,1.245c21.167-12.451,40.258-17.846,40.258-17.846
					s12.451,24.072,12.866,51.464c0.126,8.31-0.363,15.471-1.378,22.335c16.016-1.256,61.29-4.251,92.433-0.825
					c-1.165-7.76-1.638-14.485-3.068-31.886c-2.49-30.297,10.791-87.987,19.091-98.778c8.301-10.791,9.961-27.807,16.601-36.938
					s11.206-18.676,15.771-32.372C332.299,160.886,358.446,113.158,353.881,110.252z"/>
				
					<path style="fill:none;stroke:#2C2D6D;stroke-width:0.3089;stroke-linecap:round;stroke-linejoin:round;stroke-miterlimit:10;" d="
					M189.424,383.032c0,0,54.784-4.669,84.044-1.556"/>
				
					<path style="fill:none;stroke:#2C2D6D;stroke-width:0.2826;stroke-linecap:round;stroke-linejoin:round;stroke-miterlimit:10;" d="
					M231.446,377.741c0,0,4.87,57.68,3.05,82.59"/>
				
					<polyline style="fill:none;stroke:#2C2D6D;stroke-width:0.3089;stroke-linecap:round;stroke-linejoin:round;stroke-miterlimit:10;" points="
					179.31,406.21 216.249,404.199 213.392,448.711 189.424,458.831 168.88,447.418 				"/>
				
					<path style="fill:none;stroke:#2C2D6D;stroke-width:0.3089;stroke-linecap:round;stroke-linejoin:round;stroke-miterlimit:10;" d="
					M286.331,406.24l-37.454-2.382c0,0,7.782,41.399,8.716,41.711c0.934,0.311,26.657,13.012,26.657,13.012l10.947-12.412"/>
				
					<path style="fill:none;stroke:#2C2D6D;stroke-width:0.3089;stroke-linecap:round;stroke-linejoin:round;stroke-miterlimit:10;" d="
					M175.417,301.582c0,0-0.311-2.283,5.603-19.714"/>
				
					<path style="fill:none;stroke:#2C2D6D;stroke-width:0.3089;stroke-linecap:round;stroke-linejoin:round;stroke-miterlimit:10;" d="
					M112.747,300.752c0,0-1.453,2.594-3.009,6.018"/>
				
					<line style="fill:none;stroke:#2C2D6D;stroke-width:0.3089;stroke-linecap:round;stroke-linejoin:round;stroke-miterlimit:10;" x1="82.585" y1="291.725" x2="94.174" y2="276.888"/>
				
					<path style="fill:none;stroke:#2C2D6D;stroke-width:0.3089;stroke-linecap:round;stroke-linejoin:round;stroke-miterlimit:10;" d="
					M152.146,268.562c0,0-1.482,12.268,0,15.744"/>
				<path style="fill:#FEBA97;" d="M231.551,217.238c-0.856-1.904-1.35-3.228-1.35-3.228l-5.395-8.716l-24.487,10.791
					c0,0,0.83,2.075,1.245,12.036c0.072,1.736-0.005,3.233-0.245,4.561c3.66-1.106,8.152-2.984,13.007-6.221
					C221.083,221.957,226.68,218.904,231.551,217.238z"/>
				
					<path style="fill:none;stroke:#2C2D6D;stroke-width:0.3089;stroke-linecap:round;stroke-linejoin:round;stroke-miterlimit:10;" d="
					M250.953,230.197c0,0,6.018,13.696,8.819,15.252"/>
				
					<path style="fill:none;stroke:#2C2D6D;stroke-width:0.3089;stroke-linecap:round;stroke-linejoin:round;stroke-miterlimit:10;" d="
					M288.323,260.265c0,0-4.271-13.882-9.252-22.443"/>
				
					<path style="fill:none;stroke:#2C2D6D;stroke-width:0.3089;stroke-linecap:round;stroke-linejoin:round;stroke-miterlimit:10;" d="
					M298.976,177.715c0,0,5.308,2.055,7.799,7.347"/>
				
					<path style="fill:none;stroke:#2C2D6D;stroke-width:0.3089;stroke-linecap:round;stroke-linejoin:round;stroke-miterlimit:10;" d="
					M280.633,291.725c0,0-19.823,34.655-29.68,42.126"/>
				
					<path style="fill:none;stroke:#2C2D6D;stroke-width:0.3089;stroke-linecap:round;stroke-linejoin:round;stroke-miterlimit:10;" d="
					M189.424,346.613c0,0,9.961,10.895,15.875,12.762c5.914,1.868,5.914,1.868,5.914,1.868"/>
				<path style="fill:#2C2D6D;" d="M211.556,130.047c-10.996,4.028-19.755,13.261-24.983,23.552
					c-6.182,12.167-4.721,24.391-2.842,37.458c1.91,13.286-1.211,22.006-5.013,34.247c-2.513,8.091-3.025,16.996-2.088,25.384
					c1.956,17.518,12.288,33.986,31.988,31.589c34.857-4.24,22.858-20.359,38.313-23.679c7.989-1.717,16.555-7.119,19.903-14.84
					c4.363-10.061-3.979-18.016-7.013-27.104c-4.595-13.762,2.82-26.994,3.091-40.699c0.308-15.586-6.318-32.556-19.681-41.329
					C231.836,127.146,220.934,126.612,211.556,130.047z"/>
			</g>
			<g>
				<path style="fill:#DF9E82;" d="M560.357,130.677c-3.816-13.505-41.843-64.092-47.462-74.171
					c-3.932,4.096-5.376,5.096-10.378,7.525c2.542,2.349,4.589,6.535,6.519,10.441c4.394,8.889,30.633,71.635,30.635,71.641
					c0.31,0.728-1.417,4.865-1.605,5.816c-0.532,2.705-0.876,5.449-1.203,8.185c-0.8,6.695-1.328,13.42-2.075,20.121
					c-0.32,2.871-0.575,5.885-0.989,8.879c5.814,1.466,16.117,4.443,22.105,8.399C558.774,176.064,563.3,141.092,560.357,130.677z"
					/>
				
					<path style="fill:none;stroke:#2C2D6D;stroke-width:0.3021;stroke-linecap:round;stroke-linejoin:round;stroke-miterlimit:10;" d="
					M539.671,146.114c0,0,5.866-3.705,9.88-2.779"/>
				
					<path style="fill:none;stroke:#2C2D6D;stroke-width:0.3021;stroke-linecap:round;stroke-linejoin:round;stroke-miterlimit:10;" d="
					M516.92,215.932c0,0,4.845,2.735,5.462,6.131"/>
				<path style="fill:#F2BC1C;" d="M549.359,460.331c-0.586-14.695-8.182-64.87-13.596-89.242
					c-12.617,4.073-33.527,9.514-48.885,6.887c-19.157-3.277-39.542-1.204-46.383-0.332l-1.317,9.748
					c-4.524,25.912-2.839,64.606-2.405,72.939H549.359z"/>
				<path style="fill:#FEBA97;" d="M497.992,197.518l-24.545,6.02c0,0,4.096,8.407,3.974,15.807
					c5.964-0.386,14.825-1.932,22.99-6.932C495.469,205.325,497.992,197.518,497.992,197.518z"/>
				<path style="fill:#A630A0;" d="M530.484,200.968c-2.624,5.098-7.332,8.997-11.216,12.877c-4.286,4.282-9.353,6.921-14.793,2.781
					c-1.739-1.323-3.047-2.754-4.064-4.213c-8.165,5-17.026,6.546-22.99,6.932c-0.061,3.72-1.184,7.187-4.437,9.201
					c-9.725,6.02-34.27-2.779-40.236,34.27c-1.389,8.622-2.684,17.755-3.857,26.699l23.253,1.55c0,0-1.852,22.229-4.168,45.384
					c-2.316,23.155-6.483,33.807-6.483,33.807l-0.998,7.387c6.841-0.872,27.226-2.945,46.383,0.332
					c15.358,2.627,36.269-2.814,48.885-6.887c-0.578-2.602-1.132-4.913-1.649-6.852c-5.557-20.84,4.631-89.997,6.175-103.89
					c1.544-13.893,12.967-37.666,13.584-46.619c0.165-2.387,0.99-8.414,2.033-16.213c-5.988-3.956-16.291-6.934-22.105-8.399
					C533.229,193.253,532.346,197.351,530.484,200.968z"/>
				
					<line style="fill:none;stroke:#2C2D6D;stroke-width:0.3021;stroke-linecap:round;stroke-linejoin:round;stroke-miterlimit:10;" x1="492.434" y1="460.331" x2="492.434" y2="395.265"/>
				
					<path style="fill:none;stroke:#2C2D6D;stroke-width:0.3021;stroke-linecap:round;stroke-linejoin:round;stroke-miterlimit:10;" d="
					M447.05,384.768c2.779,0,30.565,1.235,45.384,2.161c14.819,0.926,40.753-4.014,40.753-4.014"/>
				
					<polygon style="fill:none;stroke:#2C2D6D;stroke-width:0.3021;stroke-linecap:round;stroke-linejoin:round;stroke-miterlimit:10;" points="
					452.144,399.587 481.937,399.587 481.937,425.83 467.041,440.649 452.144,428.608 				"/>
				
					<polygon style="fill:none;stroke:#2C2D6D;stroke-width:0.3021;stroke-linecap:round;stroke-linejoin:round;stroke-miterlimit:10;" points="
					502.582,400.784 532.351,399.587 533.405,425.808 519.116,441.214 503.748,429.782 				"/>
				
					<path style="fill:none;stroke:#2C2D6D;stroke-width:0.3021;stroke-linecap:round;stroke-linejoin:round;stroke-miterlimit:10;" d="
					M539.658,265.535c0,0-0.013-16.612,0-29.579"/>
				
					<path style="fill:none;stroke:#2C2D6D;stroke-width:0.3021;stroke-linecap:round;stroke-linejoin:round;stroke-miterlimit:10;" d="
					M534.771,307.293c0,0-8.648,24.526-17.851,25.915"/>
				
					<path style="fill:none;stroke:#2C2D6D;stroke-width:0.3021;stroke-linecap:round;stroke-linejoin:round;stroke-miterlimit:10;" d="
					M449.16,324.302c0,0,7.152,13.075,13.636,14.927"/>
				<g>
					<path style="fill:#DF9E82;" d="M516.535,62.247c-0.254-0.455-1.464-3.518-1.563-3.769c-2.026-5.131-2.193-4.549-3.273-9.95
						c-1.08-5.401-6.233-7.488-10.824-8.568c-4.591-1.08-2.836,1.215-5.807,1.08c-2.971-0.135-0.81,2.566-4.051,2.566
						s-4.456,4.321-4.456,4.321s-0.54-1.08-2.161-1.08s-1.89,8.507,1.08,14.179s9.858,6.077,14.314,5.672
						c1.805-0.164,5.199,1.461,6.712,2.859C510.882,67.431,513.095,65.83,516.535,62.247z"/>
					
						<path style="fill:none;stroke:#2C2D6D;stroke-width:0.2643;stroke-linecap:round;stroke-linejoin:round;stroke-miterlimit:10;" d="
						M486.56,47.927c0,0,1.08,6.752,1.62,8.237s3.511,2.431,3.646,3.376"/>
					
						<path style="fill:none;stroke:#2C2D6D;stroke-width:0.2643;stroke-linecap:round;stroke-linejoin:round;stroke-miterlimit:10;" d="
						M496.986,40.484c0,0,4.746,1.486,5.53,2.83"/>
					
						<path style="fill:none;stroke:#2C2D6D;stroke-width:0.2643;stroke-linecap:round;stroke-linejoin:round;stroke-miterlimit:10;" d="
						M493.058,42.497c0,0,3.297,1.377,4.978,3.505"/>
					
						<path style="fill:none;stroke:#2C2D6D;stroke-width:0.2643;stroke-linecap:round;stroke-linejoin:round;stroke-miterlimit:10;" d="
						M489.193,44.25c0,0,3.69,2.425,4.922,4.665"/>
				</g>
				<g>
					<path style="fill:#DF9E82;" d="M428.891,289.516c-3.867,29.488-6.386,56.891-6.386,56.891
						c-12.337,2.419-24.642,4.988-36.93,7.648c-6.013,1.302-10.129,2.478-17.727,3.974c-1.337,0.263-17.841,2.586-17.841,3.279
						l1.689,12.251c10.518,1.97,19.25,3.313,39.164,4.725c22.182,1.573,50.633-8.027,50.633-8.027s4.168-10.651,6.483-33.807
						c2.316-23.155,4.168-45.384,4.168-45.384L428.891,289.516z"/>
					
						<path style="fill:none;stroke:#2C2D6D;stroke-width:0.3021;stroke-linecap:round;stroke-linejoin:round;stroke-miterlimit:10;" d="
						M422.505,346.407c0,0,4.785,2.238,5.712,5.326"/>
				</g>
				
					<line style="fill:none;stroke:#2C2D6D;stroke-width:0.3021;stroke-linecap:round;stroke-linejoin:round;stroke-miterlimit:10;" x1="452.144" y1="291.066" x2="455.386" y2="269.3"/>
			</g>
			<g>
				<path style="fill:#00B6B1;" d="M553.851,298.049c-1.501,4.313-3.049,5.57-7.967,6.663c-5.582,1.241-27.808,0.517-39.593,2.688
					c-11.785,2.171-18.918-6.513-28.222-10.544c-9.304-4.032-21.709-26.361-31.013-35.665c-9.304-9.304-17.057-16.747-33.804-25.431
					c-16.747-8.684-24.5-5.582-28.222-16.437c-0.627-1.83-1.132-3.599-1.551-5.289c-3.508-0.243-10.075-0.603-18.297-0.603
					c-6.138,0-10.348,0.456-13.114,0.887c-0.108,3.516-0.927,6.931-3.322,8.727c-6.203,4.652-29.152,10.855-42.798,17.367
					c-13.646,6.513-22.639,47.76-26.981,52.722c-4.342,4.962-23.26,35.975-31.633,43.418c-8.373,7.443-24.5,28.532-32.874,32.874
					c-8.373,4.342-16.747,10.855-16.747,10.855s-0.323-0.027-0.951-0.016c1.289,3.574,4.32,11.142,8.754,17.177
					c1.101-0.869,1.113-0.879,1.113-0.879s25.663-10.234,35.742-12.095c10.079-1.861,25.431-18.143,29.617-23.725
					s10.389-9.459,17.987-16.747c7.598-7.288,22.484-23.26,22.484-23.26s4.652,18.298,1.861,39.386
					c-2.791,21.089-2.481,28.222-1.551,34.734c0.402,2.813-0.123,5.74-0.848,8.56c4.571-2.08,11.587-4.068,21.937-3.598
					c20.469,0.93,43.108,3.272,63.266-0.07c12.277-2.035,21.194-0.147,26.309,1.641c-0.54-15.744,2.849-39.669,4.083-53.983
					c1.551-17.987,1.551-36.595,1.551-36.595s20.158,21.709,37.526,26.981c17.367,5.272,37.526,6.203,53.342,5.272
					c15.817-0.93,38.301-17.677,44.348-20.934c1.177-0.634,2.299-1.362,3.367-2.136C565.448,305.549,557.687,299.96,553.851,298.049
					z"/>
				<g>
					
						<path style="fill:none;stroke:#2C2D6D;stroke-width:0.3101;stroke-linecap:round;stroke-linejoin:round;stroke-miterlimit:10;" d="
						M353.398,222.115c0.62,0,21.884-1.694,27.912,0"/>
					
						<path style="fill:none;stroke:#2C2D6D;stroke-width:0.3101;stroke-linecap:round;stroke-linejoin:round;stroke-miterlimit:10;" d="
						M312.46,320.736c0,0,8.063-8.684,11.165-23.88s0-31.013,0-31.013"/>
					
						<path style="fill:none;stroke:#2C2D6D;stroke-width:0.3101;stroke-linecap:round;stroke-linejoin:round;stroke-miterlimit:10;" d="
						M281.284,351.67c0,0,6.366-11.293,1.817-25.766"/>
					
						<path style="fill:none;stroke:#2C2D6D;stroke-width:0.3101;stroke-linecap:round;stroke-linejoin:round;stroke-miterlimit:10;" d="
						M247.333,336.552c0,0-0.62,13.129,1.861,19.745"/>
					
						<path style="fill:none;stroke:#2C2D6D;stroke-width:0.3101;stroke-linecap:round;stroke-linejoin:round;stroke-miterlimit:10;" d="
						M201.434,379.66c0,0,4.851,8.887,6.668,12.25"/>
					
						<path style="fill:none;stroke:#2C2D6D;stroke-width:0.3101;stroke-linecap:round;stroke-linejoin:round;stroke-miterlimit:10;" d="
						M424.533,376.824c0,0-18.724-36.55-35.161-40.272"/>
					
						<path style="fill:none;stroke:#2C2D6D;stroke-width:0.3101;stroke-linecap:round;stroke-linejoin:round;stroke-miterlimit:10;" d="
						M315.077,351.67c0.04-0.886,10.098-9.846,14.44-21.941"/>
					
						<path style="fill:none;stroke:#2C2D6D;stroke-width:0.3101;stroke-linecap:round;stroke-linejoin:round;stroke-miterlimit:10;" d="
						M332.309,259.64c3.101,0,12.696-10.234,40.462-6.513s32.108-4.652,46.064-2.791"/>
					
						<path style="fill:none;stroke:#2C2D6D;stroke-width:0.3101;stroke-linecap:round;stroke-linejoin:round;stroke-miterlimit:10;" d="
						M429.069,310.811c0,0-1.551-44.969-3.411-51.171"/>
					
						<path style="fill:none;stroke:#2C2D6D;stroke-width:0.3101;stroke-linecap:round;stroke-linejoin:round;stroke-miterlimit:10;" d="
						M430.896,312.7c0,0,5.203-12.433,6.237-21.943"/>
					
						<path style="fill:none;stroke:#2C2D6D;stroke-width:0.3101;stroke-linecap:round;stroke-linejoin:round;stroke-miterlimit:10;" d="
						M514.04,343.315c0,0-9.253-17.411-12.401-26.715"/>
					
						<path style="fill:none;stroke:#2C2D6D;stroke-width:0.3101;stroke-linecap:round;stroke-linejoin:round;stroke-miterlimit:10;" d="
						M471.164,291.473c0.303,0.318,2.15,8.174,4.631,19.338"/>
				</g>
				<path style="fill:#FEBA97;" d="M396.237,173.097c-2.084-0.208-3.119,0.818-3.589,1.54c1.36-2.742,6.258-13.753,4.218-26.536
					c-2.358-14.778-17.764-23.738-30.97-24.053c-13.206,0.314-28.612,9.275-30.97,24.053c-2.04,12.783,2.858,23.794,4.218,26.536
					c-0.47-0.721-1.505-1.748-3.589-1.54c-3.144,0.314-2.358,9.59,0.943,14.935c3.301,5.345,6.76,0,6.76,0
					c0.847,1.468,3.4,6.832,5.575,11.466c2.022,4.31,3.209,8.989,3.247,13.749c0.003,0.357-0.001,0.715-0.012,1.071
					c2.767-0.431,6.976-0.887,13.114-0.887c8.222,0,14.79,0.36,18.297,0.603c0,0,0,0,0-0.001
					c-1.424-5.676-0.949-11.662,1.217-17.096c1.51-3.786,3.109-7.646,3.836-8.906c0,0,3.459,5.345,6.76,0
					C398.595,182.686,399.381,173.411,396.237,173.097z"/>
				<path style="fill:#2C2D6D;" d="M431.035,460.331c-0.707-8.907-3.178-37.773-6.308-48.727c-0.76-2.661-1.154-6.172-1.292-10.214
					c-5.115-1.788-14.033-3.676-26.309-1.641c-20.158,3.342-42.798,1-63.266,0.07c-10.35-0.47-17.365,1.517-21.937,3.598
					c-0.953,3.709-2.254,7.229-2.254,10.048c0,4.228-4.952,37.198-6.418,46.867H431.035z"/>
				<path style="fill:#FEBA97;" d="M581.497,296.391c0,0,0.93-3.256-2.326-4.885c-3.256-1.628-8.606-3.877-10.312-3.256
					c-1.706,0.62-0.775-2.326,0-4.342c0.775-2.016-0.078-3.566-2.636-2.869c-2.559,0.698-10.002,9.2-11.759,15.093
					c-0.209,0.701-0.411,1.335-0.613,1.917c3.836,1.91,11.597,7.5,13.802,21.946c4.424-3.202,7.905-7.19,10.278-8.564
					c2.946-1.706,5.427-4.032,4.032-6.823C581.963,304.609,585.064,299.182,581.497,296.391z"/>
				
					<path style="fill:none;stroke:#2C2D6D;stroke-width:0.3101;stroke-linecap:round;stroke-linejoin:round;stroke-miterlimit:10;" d="
					M568.007,288.064c-0.62,0.211-2.378,3.312-0.93,5.483s6.812-2.084,7.489-4.092"/>
				<g>
					
						<path style="fill:none;stroke:#FFFFFF;stroke-width:0.3101;stroke-linecap:round;stroke-linejoin:round;stroke-miterlimit:10;" d="
						M312.667,411.293c0,0,24.81-1.861,42.178,1.654c17.367,3.515,27.498,2.068,34.528,2.274s31.22-2.148,31.22-2.148"/>
					
						<path style="fill:none;stroke:#FFFFFF;stroke-width:0.3101;stroke-linecap:round;stroke-linejoin:round;stroke-miterlimit:10;" d="
						M380.896,404.47c0,0,6.078,30.223-2.192,55.86"/>
					
						<path style="fill:none;stroke:#FFFFFF;stroke-width:0.3101;stroke-linecap:round;stroke-linejoin:round;stroke-miterlimit:10;" d="
						M361.882,460.331l4.748-35.805h-50.241c0,0-0.326,35.598-1.153,35.805"/>
					
						<polyline style="fill:none;stroke:#FFFFFF;stroke-width:0.3101;stroke-linecap:round;stroke-linejoin:round;stroke-miterlimit:10;" points="
						427.226,424.525 399.09,424.525 401.014,460.331 					"/>
				</g>
				
					<path style="fill:none;stroke:#2C2D6D;stroke-width:0.3101;stroke-linecap:round;stroke-linejoin:round;stroke-miterlimit:10;" d="
					M553.851,305.849c0,0,2.991,1.085,6.713,8.684"/>
				<path style="fill:#F2BC1C;" d="M332.213,142.192c-0.472,13.525,2.343,26.968,8.054,39.238c1.687,3.624,3.25,6.96,4.224,8.985
					c3.103,6.453,22.74,10.304,22.862,10.304s15.606-3.632,21.914-13.573c6.308-9.94,12.426-28.292,10.323-46.452
					s-14.528-27.145-22.366-24.278s-15.102-9.367-36.512-2.867c-21.41,6.5-8.029,22.175-8.411,26.954
					C332.265,140.95,332.236,141.522,332.213,142.192z"/>
				<g>
					<path style="fill:#FEBA97;" d="M187.168,381.831c-6.978,1.861-8.218,6.048-10.699,7.753s-4.032,1.706-6.668,3.256
						c-2.636,1.551-7.908,3.644-7.443,6.358c0.465,2.714,2.714,2.636,3.877,2.559c0,0-2.869,3.722-1.085,5.815
						c1.783,2.093,6.435,0.698,6.435,0.698s-1.473,2.791-0.465,4.729c1.008,1.938,8.373-0.388,8.373-0.388s-1.241,3.566,2.093,3.877
						c3.334,0.31,8.916-2.016,13.568-5.582c4.652-3.566,8.529-12.018,10.002-13.18c0.136-0.108,0.248-0.196,0.36-0.284
						c-4.434-6.034-7.465-13.603-8.754-17.177C195.28,380.289,192.069,380.524,187.168,381.831z"/>
					
						<path style="fill:none;stroke:#2C2D6D;stroke-width:0.3101;stroke-linecap:round;stroke-linejoin:round;stroke-miterlimit:10;" d="
						M166.235,401.757c0,0,4.987-2.854,6.214-3.367"/>
					
						<path style="fill:none;stroke:#2C2D6D;stroke-width:0.3101;stroke-linecap:round;stroke-linejoin:round;stroke-miterlimit:10;" d="
						M171.584,408.27c0,0,4.72-2.33,4.72-3.207"/>
					
						<path style="fill:none;stroke:#2C2D6D;stroke-width:0.3101;stroke-linecap:round;stroke-linejoin:round;stroke-miterlimit:10;" d="
						M179.493,412.611c0,0,4.173-1.589,5.4-2.991"/>
					
						<path style="fill:none;stroke:#2C2D6D;stroke-width:0.3101;stroke-linecap:round;stroke-linejoin:round;stroke-miterlimit:10;" d="
						M176.469,389.584c0,0,4.776-2.574,5.724-2.574"/>
				</g>
			</g>
			<g>
				<path style="fill:#DF9E82;" d="M429.592,310.715c-2.16,18.857-4.243,34.984-4.243,34.984
					c-12.337,2.419-24.642,4.988-36.93,7.648c-6.013,1.302-10.129,2.478-17.727,3.974c-1.337,0.263-17.841,2.586-17.841,3.279
					l1.689,12.251c10.518,1.97,19.25,3.313,39.164,4.725c22.182,1.573,50.633-8.027,50.633-8.027s4.168-10.651,6.483-33.807
					c0.45-4.5,0.507-1.684,0.912-5.958C444.577,324.76,436.381,317.981,429.592,310.715z"/>
				
					<path style="fill:none;stroke:#2C2D6D;stroke-width:0.3021;stroke-linecap:round;stroke-linejoin:round;stroke-miterlimit:10;" d="
					M425.35,345.7c0,0,4.785,2.238,5.712,5.326"/>
				<path style="fill:#DF9E82;" d="M354.933,361.917c0,0-5.755-3.64-8.552-5.423c-2.797-1.783-5.812-2.883-8.317-4.237
					c-2.506-1.354-6.606-2.859-7.698-2.189c-1.092,0.669,1.735,3.445,3.059,4.497s5.743,3.243,5.578,3.705
					c-0.165,0.462-21.491-2.205-23.437-1.49c-1.946,0.715,0.147,2.221,6.292,3.643c6.145,1.422,9.249,2.222,8.79,2.792
					c-0.46,0.57-16.096,1.366-17.806,3.267s10.832,1.975,12.855,1.833c2.023-0.141,2.776,0.452,2.155,0.948
					c-0.621,0.496-14.174,4.408-14.327,5.267s0.883,2.219,5.844,1.332c1.713-0.306,2.863-0.517,3.634-0.662
					c0.893-0.168,1.762-0.392,2.624-0.682c1.846-0.623,5.508-1.752,6.088-1.12c0.781,0.851-10.737,5.018-10.878,6.274
					s8.95-0.412,13.009-1.57s9.066-1.191,14.052-2.556s7.727-3.376,7.727-3.376L354.933,361.917z"/>
			</g>
			<g>
				<g>
					<path style="fill:#DF9E82;" d="M273.926,197.502c-10.483,0-12.762,3.646-16.408,10.939
						c-3.646,7.293-24.157,37.375-25.98,42.388c-0.902,2.481-11.966-2.518-25.229-8.532c2.648,8.717,5.962,23.189,2.822,33.44
						c15.502,0.815,29.361,1.277,31.523-0.296c4.847-3.525,33.6-61.006,37.802-64.632c4.738-5.934,5.411-7.681,8.982-12.661
						C286.253,197.726,275.214,197.502,273.926,197.502z"/>
					
						<path style="fill:none;stroke:#2C2D6D;stroke-width:0.3089;stroke-linecap:round;stroke-linejoin:round;stroke-miterlimit:10;" d="
						M231.537,250.83c0,0,4.102,6.284,4.558,8.612"/>
				</g>
				<path style="fill:#F2BC1C;" d="M206.309,242.298c-13.538-6.138-29.368-13.332-39.037-14.714
					c-1.559-0.223-3.163-0.358-4.791-0.434c-2.289,18.009-2.289,18.009-3.169,33.193c7.223-0.603,29.67,16.544,49.819,15.394
					C212.271,265.487,208.957,251.015,206.309,242.298z"/>
			</g>
			<path style="fill:#FF6196;" d="M443.915,124.354c0,0-18.244,11.443-16.865,35.151c1.379,23.708,18.451,44.442,10.075,59.415
				s4.672,46.511,13.717,44.34c9.045-2.171,10.352,3.066,11.144,10.187s-3.025,30.242,15.919,30.181s23.101-17.02,35.315-12.493
				c12.214,4.527,20.086-9.035,15.836-31.385s-0.607-15.641,6.513-38.217s-16.258-14.56-25.026-46.953
				S483.624,105.801,443.915,124.354z"/>
			<g>
				<path style="fill:#2C2D6D;" d="M580.106,205.261c-7.887,2.517-25.506,12.779-33.955,19.835
					c-8.324,6.951-16.883,13.315-24.827,18.975c-0.586,18.444,3.355,36.54,12.803,52.324c6.755-3.222,13.199-6.874,19.581-10.766
					c2.869-1.749,5.922-3.246,8.901-4.796c4.011-2.087,8.279-2.75,10.348-7.082c2.139-4.479,3.119-9.229,3.803-14.11
					C579.085,243.047,583.318,221.79,580.106,205.261z"/>
				<path style="fill:#FEBA97;" d="M521.267,256.292c0,0-27.285,22.094-34.338,22.094c-6.558,0-40.348-26.048-50.924-36.01
					c0.021-0.027,0.044-0.052,0.065-0.079c-2.679-2.604-4.517-4.382-5.187-5.87c-1.368-3.036-2.513-8.536-9.201-10.072
					c-6.688-1.535-18.369-7.384-19.377-5.813c-1.008,1.571-6.004,0.762-6.307,2.635c-0.303,1.873-4.172,2.717-4.233,4.027
					c-0.061,1.309,1.006,1.935,1.006,1.935s-5.119,2.979-2.642,4.209c2.477,1.23,7.171,1.575,13.837,5.105
					c6.666,3.53,9.372,9.284,14.544,10.46c3.209,0.73,4.892,0.372,6.15,0.543c4.084,5.633,40.452,55.218,57.276,57.837
					c17.839,2.777,49.097-16.537,49.097-16.537L521.267,256.292z"/>
				
					<path style="fill:none;stroke:#2C2D6D;stroke-width:0.3101;stroke-linecap:round;stroke-linejoin:round;stroke-miterlimit:10;" d="
					M392.771,229.14c0,0,7.634,1.984,10.253,3.686"/>
				
					<path style="fill:none;stroke:#2C2D6D;stroke-width:0.3101;stroke-linecap:round;stroke-linejoin:round;stroke-miterlimit:10;" d="
					M394.36,225.049c0,0,9.974,2.631,11.676,4.091"/>
				
					<path style="fill:none;stroke:#2C2D6D;stroke-width:0.3101;stroke-linecap:round;stroke-linejoin:round;stroke-miterlimit:10;" d="
					M400.012,221.561c0,0,7.463,2.754,9.034,4.063"/>
				
					<path style="fill:none;stroke:#2C2D6D;stroke-width:0.3101;stroke-linecap:round;stroke-linejoin:round;stroke-miterlimit:10;" d="
					M487.969,278.261c0,0-0.286,5.425,0,6.965"/>
				
					<path style="fill:none;stroke:#FFFFFF;stroke-width:0.2605;stroke-linecap:round;stroke-linejoin:round;stroke-miterlimit:10;" d="
					M553.708,284.347"/>
				
					<path style="fill:none;stroke:#FFFFFF;stroke-width:0.2605;stroke-linecap:round;stroke-linejoin:round;stroke-miterlimit:10;" d="
					M553.708,285.628"/>
				
					<line style="fill:none;stroke:#FFFFFF;stroke-width:0.2605;stroke-linecap:round;stroke-linejoin:round;stroke-miterlimit:10;" x1="553.708" y1="285.628" x2="553.457" y2="272.102"/>
			</g>
		</g>
	</g>
</g>
</svg>
